<svg width="100" height="100" viewBox="0 0 100 100" fill="none" xmlns="http://www.w3.org/2000/svg">
<path fill-rule="evenodd" clip-rule="evenodd" d="M49.5 44C48.921 44 48.4516 44.4694 48.4516 45.0484V49.4515H44.0484C43.4694 49.4515 43 49.9209 43 50.4999C43 51.0789 43.4694 51.5483 44.0484 51.5483H48.4516V55.9516C48.4516 56.5306 48.921 57 49.5 57C50.079 57 50.5484 56.5306 50.5484 55.9516V51.5483H54.9516C55.5306 51.5483 56 51.0789 56 50.4999C56 49.9209 55.5306 49.4515 54.9516 49.4515H50.5484V45.0484C50.5484 44.4694 50.079 44 49.5 44Z" fill="white" fill-opacity="0.10"/>
</svg>
